<?xml version="1.0" standalone="no"?>
<!DOCTYPE svg PUBLIC "-//W3C//DTD SVG 20010904//EN"
 "http://www.w3.org/TR/2001/REC-SVG-20010904/DTD/svg10.dtd">
<svg version="1.0" xmlns="http://www.w3.org/2000/svg"
 width="650.000000pt" height="650.000000pt" viewBox="0 0 650.000000 650.000000"
 preserveAspectRatio="xMidYMid meet">
<metadata>
Created by potrace 1.14, written by Peter Selinger 2001-2017
</metadata>
<g transform="translate(0.000000,650.000000) scale(0.100000,-0.100000)"
fill="#000000" stroke="none">
<path d="M3345 5335 c-172 -37 -191 -53 -884 -752 -337 -340 -615 -621 -618
-626 -4 -6 435 -450 536 -541 l22 -20 402 401 c357 356 409 404 468 432 110
54 220 49 322 -12 22 -13 322 -307 668 -653 l629 -629 614 615 c524 525 618
624 643 675 35 68 45 107 45 168 -1 117 -44 210 -139 293 -36 32 -96 86 -132
120 -36 34 -82 75 -102 92 l-37 32 -177 -173 c-98 -94 -297 -290 -444 -434
-146 -144 -267 -263 -268 -263 -1 0 -159 156 -350 346 -779 774 -849 842 -896
869 -63 36 -116 54 -180 61 -29 3 -54 7 -57 9 -3 1 -32 -3 -65 -10z"/>
<path d="M1360 3442 c-476 -467 -1004 -994 -1104 -1101 l-89 -94 169 -167
c139 -138 180 -172 234 -198 114 -54 239 -46 343 22 29 18 193 176 366 350
172 173 319 320 326 326 11 9 147 -121 603 -575 323 -322 606 -598 628 -613
81 -59 140 -77 249 -76 82 0 110 4 155 24 123 52 189 108 498 420 167 168 446
448 620 623 l317 318 -281 279 -281 280 -114 -119 c-63 -65 -184 -192 -269
-282 -422 -446 -433 -454 -595 -454 -83 0 -95 3 -152 34 -61 33 -83 53 -332
316 -42 44 -155 163 -251 265 -96 101 -211 223 -255 270 -44 47 -166 171 -271
277 l-191 192 -323 -317z"/>
</g>
</svg>
